<svg width="640" height="320" viewBox="0 0 640 320" fill="none" xmlns="http://www.w3.org/2000/svg">
  <defs>
    <linearGradient id="bg" x1="0" y1="0" x2="640" y2="320" gradientUnits="userSpaceOnUse">
      <stop stop-color="#1a1337"/>
      <stop offset="1" stop-color="#0f0a24"/>
    </linearGradient>
  </defs>
  <rect width="640" height="320" rx="20" fill="url(#bg)"/>
  <rect x="32" y="36" width="576" height="248" rx="14" stroke="#4c426f" stroke-width="2"/>
  <g stroke="#d8ceaf" stroke-opacity="0.65" stroke-width="1.6">
    <line x1="64" y1="88" x2="576" y2="88"/>
    <line x1="64" y1="132" x2="576" y2="132"/>
    <line x1="64" y1="176" x2="576" y2="176"/>
    <line x1="64" y1="220" x2="576" y2="220"/>
    <line x1="120" y1="60" x2="120" y2="256"/>
    <line x1="208" y1="60" x2="208" y2="256"/>
    <line x1="296" y1="60" x2="296" y2="256"/>
    <line x1="384" y1="60" x2="384" y2="256"/>
    <line x1="472" y1="60" x2="472" y2="256"/>
  </g>
  <path d="M74 204C108 186 140 170 172 164C214 156 240 166 270 158C300 150 326 126 362 120C396 114 430 126 468 118C502 110 538 88 574 82" stroke="#f3e7c8" stroke-width="4" stroke-linecap="round"/>
  <path d="M84 216C128 198 164 190 200 192C236 194 262 210 292 208C326 206 354 178 392 174C432 170 464 186 506 182C532 180 552 168 570 154" stroke="#f59a35" stroke-width="3.5" stroke-linecap="round"/>
  <circle cx="394" cy="174" r="8" fill="#f59a35"/>
  <circle cx="292" cy="208" r="8" fill="#f3e7c8"/>
  <text x="320" y="280" text-anchor="middle" fill="#c7bb98" font-family="system-ui, sans-serif" font-size="20" letter-spacing="3">TACTICAL MAP</text>
</svg>
